<svg width="100" height="100" viewBox="0 0 631 421" fill="none" xmlns="http://www.w3.org/2000/svg">
<path d="M150.461 175.086C161.54 169.867 170.244 160.665 174.837 149.317C175.291 148.193 177.014 148.956 176.56 150.079C171.759 161.88 162.682 171.437 151.14 176.843C150.04 177.357 149.366 175.598 150.461 175.086L150.461 175.086Z" fill="white"/>
<path d="M446.422 132.44C457.502 127.22 466.206 118.019 470.799 106.671C471.253 105.546 472.975 106.31 472.522 107.433C467.72 119.233 458.643 128.79 447.101 134.196C446.001 134.711 445.328 132.951 446.422 132.44L446.422 132.44Z" fill="white"/>
<path d="M112.835 410.631L119.337 415.664L144.617 420.047L172.715 350.244C172.715 350.244 189.922 296.449 238.102 307.454L392.966 304.703C392.966 304.703 440.514 299.833 448.372 322.243C449.861 326.488 490.013 420.261 490.013 420.261L518.165 416.29L514.792 336.344L447.928 181.235L331.708 173.982L211.947 182.266L112.835 410.631Z" fill="#3F3D56"/>
<path d="M241.544 312.269C266.252 312.269 286.282 292.252 286.282 267.559C286.282 242.867 266.252 222.849 241.544 222.849C216.835 222.849 196.805 242.867 196.805 267.559C196.805 292.252 216.835 312.269 241.544 312.269Z" fill="#2F2E41"/>
<path d="M391.589 312.269C416.297 312.269 436.328 292.252 436.328 267.559C436.328 242.867 416.297 222.849 391.589 222.849C366.881 222.849 346.851 242.867 346.851 267.559C346.851 292.252 366.881 312.269 391.589 312.269Z" fill="#2F2E41"/>
<path d="M189.234 121.048L207.655 117.438C207.655 117.438 346.347 97.6612 434.011 121.048L427.38 139.62L195.429 138.244L189.234 121.048Z" fill="#E6E6E6"/>
<path d="M376.233 217.003H258.531C244.239 217.003 231.888 207.113 229.162 193.487L216.28 129.102C215.996 127.697 216.007 126.248 216.314 124.848C216.621 123.447 217.217 122.126 218.063 120.969C218.949 119.755 220.075 118.736 221.371 117.974C222.668 117.213 224.107 116.727 225.599 116.545C287.677 108.844 349.147 108.831 408.304 116.505C409.775 116.685 411.194 117.166 412.472 117.917C413.749 118.669 414.859 119.675 415.73 120.874C416.572 122.014 417.169 123.316 417.485 124.697C417.802 126.078 417.83 127.51 417.569 128.902L405.678 193.09C403.112 206.946 390.728 217.003 376.233 217.003Z" fill="#6C63FF"/>
<path d="M136.876 131.53L137.389 122.317C137.469 120.881 137.895 119.486 138.632 118.252C139.369 117.017 140.395 115.98 141.621 115.228C149.053 110.671 169.099 100.64 194.682 105.898C196.479 106.27 198.117 107.185 199.375 108.52C200.632 109.855 201.448 111.544 201.711 113.359L202.396 118.153L136.876 131.53Z" fill="#3F3D56"/>
<path d="M497.633 131.53L432.113 118.153L433.214 110.451C433.341 109.541 433.737 108.691 434.351 108.008C434.966 107.325 435.771 106.842 436.662 106.62C466.166 99.2206 488.749 112.361 494.968 116.565C495.558 116.965 496.048 117.496 496.4 118.116C496.753 118.735 496.958 119.428 496.999 120.14L497.633 131.53Z" fill="#3F3D56"/>
<path d="M116.073 416.64C114.494 416.657 112.943 416.221 111.605 415.384C94.0612 405.146 83.1239 386.385 79.1216 359.637C75.8156 337.542 77.1962 309.81 83.2247 277.21C93.9129 219.412 116.314 161.641 125.45 139.485C126.66 136.561 128.54 133.961 130.94 131.896C133.339 129.831 136.191 128.358 139.264 127.596C158.097 122.967 190.973 115.201 199.558 115.201C211.324 115.201 217.691 126.27 217.754 126.382L217.789 126.474L228.122 171.253V171.899C233.822 191.174 229.587 205.098 225.027 213.385C220.077 222.38 213.673 226.871 213.609 226.915C203.553 234.566 187.169 259.214 170.863 291.231C153.919 324.503 141.357 357.334 137.263 379.054C132.251 405.639 124.904 413.778 119.623 415.923C118.498 416.391 117.292 416.634 116.073 416.64V416.64Z" fill="#E6E6E6"/>
<path d="M372.353 211.5H261.14C254.576 211.491 248.219 209.205 243.155 205.032C238.09 200.859 234.632 195.058 233.372 188.621L221.201 126.002C220.93 124.616 220.947 123.189 221.25 121.809C221.553 120.43 222.136 119.128 222.963 117.982C223.789 116.837 224.842 115.873 226.056 115.15C227.27 114.427 228.619 113.961 230.021 113.78C288.679 106.29 346.763 106.277 402.659 113.741C404.041 113.929 405.37 114.394 406.567 115.109C407.764 115.825 408.803 116.775 409.623 117.902C410.442 119.03 411.025 120.312 411.335 121.67C411.645 123.029 411.677 124.436 411.429 125.807L400.194 188.234C399.024 194.761 395.593 200.669 390.503 204.922C385.413 209.176 378.988 211.504 372.353 211.5V211.5Z" fill="#E6E6E6"/>
<path d="M518.439 416.641C517.219 416.635 516.012 416.391 514.886 415.923C509.605 413.778 502.258 405.639 497.246 379.054C493.152 357.334 480.591 324.503 463.646 291.231C447.34 259.214 430.956 234.566 420.887 226.906C420.836 226.871 414.432 222.38 409.482 213.385C404.922 205.098 400.687 191.174 406.387 171.899L406.396 171.175L416.731 126.425L416.755 126.382C416.819 126.27 423.185 115.201 434.951 115.201C443.537 115.201 476.413 122.967 495.245 127.596C498.318 128.359 501.17 129.832 503.569 131.897C505.968 133.962 507.849 136.561 509.06 139.485V139.485C518.195 161.641 540.596 219.412 551.284 277.21C557.313 309.81 558.693 337.542 555.388 359.637C551.385 386.385 540.448 405.146 522.88 415.399C521.549 416.228 520.007 416.659 518.439 416.641V416.641Z" fill="#E6E6E6"/>
<path d="M241.543 286.819C256.368 286.819 268.386 274.809 268.386 259.993C268.386 245.177 256.368 233.167 241.543 233.167C226.718 233.167 214.7 245.177 214.7 259.993C214.7 274.809 226.718 286.819 241.543 286.819Z" fill="#3F3D56"/>
<path d="M241.544 277.877C251.427 277.877 259.439 269.87 259.439 259.993C259.439 250.116 251.427 242.109 241.544 242.109C231.66 242.109 223.648 250.116 223.648 259.993C223.648 269.87 231.66 277.877 241.544 277.877Z" fill="#2F2E41"/>
<path d="M391.589 286.819C406.414 286.819 418.432 274.809 418.432 259.993C418.432 245.177 406.414 233.167 391.589 233.167C376.764 233.167 364.746 245.177 364.746 259.993C364.746 274.809 376.764 286.819 391.589 286.819Z" fill="#3F3D56"/>
<path d="M391.589 277.877C401.473 277.877 409.485 269.87 409.485 259.993C409.485 250.116 401.473 242.109 391.589 242.109C381.706 242.109 373.694 250.116 373.694 259.993C373.694 269.87 381.706 277.877 391.589 277.877Z" fill="#2F2E41"/>
<path d="M300.048 227.664C301.188 227.664 302.112 226.74 302.112 225.601C302.112 224.461 301.188 223.537 300.048 223.537C298.907 223.537 297.983 224.461 297.983 225.601C297.983 226.74 298.907 227.664 300.048 227.664Z" fill="#2F2E41"/>
<path d="M308.995 227.664C310.136 227.664 311.06 226.74 311.06 225.601C311.06 224.461 310.136 223.537 308.995 223.537C307.855 223.537 306.93 224.461 306.93 225.601C306.93 226.74 307.855 227.664 308.995 227.664Z" fill="#2F2E41"/>
<path d="M304.866 235.231C306.006 235.231 306.93 234.307 306.93 233.167C306.93 232.027 306.006 231.103 304.866 231.103C303.725 231.103 302.801 232.027 302.801 233.167C302.801 234.307 303.725 235.231 304.866 235.231Z" fill="#2F2E41"/>
<path d="M313.125 235.231C314.265 235.231 315.19 234.307 315.19 233.167C315.19 232.027 314.265 231.103 313.125 231.103C311.985 231.103 311.06 232.027 311.06 233.167C311.06 234.307 311.985 235.231 313.125 235.231Z" fill="#2F2E41"/>
<path d="M321.384 235.231C322.525 235.231 323.449 234.307 323.449 233.167C323.449 232.027 322.525 231.103 321.384 231.103C320.244 231.103 319.319 232.027 319.319 233.167C319.319 234.307 320.244 235.231 321.384 235.231Z" fill="#2F2E41"/>
<path d="M329.644 235.231C330.784 235.231 331.709 234.307 331.709 233.167C331.709 232.027 330.784 231.103 329.644 231.103C328.503 231.103 327.579 232.027 327.579 233.167C327.579 234.307 328.503 235.231 329.644 235.231Z" fill="#2F2E41"/>
<path d="M317.943 227.664C319.083 227.664 320.008 226.74 320.008 225.601C320.008 224.461 319.083 223.537 317.943 223.537C316.802 223.537 315.878 224.461 315.878 225.601C315.878 226.74 316.802 227.664 317.943 227.664Z" fill="#2F2E41"/>
<path d="M326.891 227.664C328.031 227.664 328.955 226.74 328.955 225.601C328.955 224.461 328.031 223.537 326.891 223.537C325.75 223.537 324.826 224.461 324.826 225.601C324.826 226.74 325.75 227.664 326.891 227.664Z" fill="#2F2E41"/>
<path d="M335.838 227.664C336.979 227.664 337.903 226.74 337.903 225.601C337.903 224.461 336.979 223.537 335.838 223.537C334.698 223.537 333.773 224.461 333.773 225.601C333.773 226.74 334.698 227.664 335.838 227.664Z" fill="#2F2E41"/>
<path d="M326.202 289.227H308.307C307.486 289.227 306.698 288.9 306.117 288.32C305.536 287.739 305.21 286.952 305.21 286.131C305.21 285.31 305.536 284.523 306.117 283.942C306.698 283.362 307.486 283.036 308.307 283.036H326.202C327.024 283.036 327.812 283.362 328.392 283.942C328.973 284.523 329.3 285.31 329.3 286.131C329.3 286.952 328.973 287.739 328.392 288.32C327.812 288.9 327.024 289.227 326.202 289.227Z" fill="#2F2E41"/>
<path d="M207.71 154.674C206.555 154.671 205.435 154.279 204.53 153.562C203.626 152.844 202.989 151.843 202.724 150.719L199.98 139.075C199.669 137.752 199.897 136.359 200.614 135.204C201.33 134.048 202.476 133.224 203.8 132.912C205.124 132.6 206.518 132.827 207.675 133.541C208.832 134.256 209.658 135.4 209.971 136.723L212.716 148.367C212.892 149.121 212.896 149.905 212.727 150.66C212.557 151.416 212.22 152.123 211.738 152.73C211.257 153.336 210.644 153.826 209.947 154.163C209.249 154.5 208.485 154.674 207.71 154.674V154.674Z" fill="#3F3D56"/>
<path d="M427.487 153.986C426.713 153.987 425.948 153.812 425.25 153.475C424.553 153.138 423.941 152.648 423.459 152.042C422.978 151.435 422.64 150.728 422.471 149.973C422.301 149.217 422.305 148.433 422.482 147.68L425.226 136.036C425.539 134.713 426.365 133.568 427.522 132.853C428.68 132.139 430.073 131.912 431.397 132.224C432.721 132.536 433.868 133.36 434.584 134.516C435.3 135.671 435.528 137.064 435.218 138.388L432.473 150.032C432.208 151.155 431.572 152.156 430.667 152.874C429.762 153.591 428.642 153.983 427.487 153.986V153.986Z" fill="#3F3D56"/>
<path d="M169.844 189.044C168.155 189.044 166.507 188.525 165.124 187.556L159.363 183.526C158.279 182.767 157.394 181.758 156.783 180.585C156.172 179.412 155.853 178.109 155.852 176.787V164.444C155.855 161.966 156.842 159.59 158.595 157.837C160.349 156.085 162.726 155.099 165.206 155.096H174.03C176.51 155.099 178.887 156.085 180.641 157.837C182.394 159.59 183.381 161.966 183.384 164.444V176.908C183.381 178.196 183.077 179.466 182.496 180.616C181.914 181.766 181.071 182.764 180.035 183.53L174.727 187.439C173.313 188.482 171.601 189.044 169.844 189.044V189.044Z" fill="#3F3D56"/>
<path d="M174.03 234.199H165.206C162.726 234.196 160.349 233.21 158.595 231.458C156.842 229.705 155.855 227.329 155.852 224.851V212.508C155.853 211.186 156.172 209.883 156.783 208.71C157.394 207.537 158.279 206.528 159.363 205.769L165.124 201.739C166.535 200.751 168.221 200.231 169.944 200.252C171.667 200.273 173.34 200.834 174.727 201.856L180.035 205.765C181.071 206.531 181.914 207.529 182.496 208.679C183.077 209.829 183.381 211.099 183.384 212.387V224.851C183.381 227.329 182.394 229.705 180.641 231.458C178.887 233.21 176.51 234.196 174.03 234.199V234.199Z" fill="#3F3D56"/>
<path d="M201.561 208.404H189.211C187.888 208.404 186.584 208.085 185.41 207.474C184.236 206.863 183.227 205.979 182.468 204.896L178.435 199.139C177.446 197.728 176.925 196.043 176.946 194.322C176.967 192.6 177.529 190.928 178.552 189.542L182.464 184.237C183.23 183.201 184.229 182.359 185.379 181.778C186.53 181.197 187.801 180.893 189.09 180.891H201.561C204.041 180.893 206.419 181.879 208.172 183.632C209.926 185.384 210.912 187.76 210.915 190.239V199.056C210.912 201.535 209.926 203.911 208.172 205.663C206.419 207.416 204.041 208.402 201.561 208.404V208.404Z" fill="#3F3D56"/>
<path d="M149.337 208.404H136.987C134.507 208.402 132.129 207.416 130.376 205.663C128.622 203.911 127.636 201.535 127.633 199.056V190.239C127.636 187.76 128.622 185.384 130.376 183.632C132.129 181.879 134.507 180.893 136.987 180.891H149.458C150.747 180.893 152.018 181.197 153.169 181.778C154.319 182.359 155.318 183.201 156.084 184.237L159.996 189.542C161.019 190.928 161.58 192.6 161.601 194.322C161.622 196.043 161.102 197.728 160.113 199.139L156.08 204.896C155.321 205.979 154.312 206.863 153.138 207.474C151.964 208.085 150.66 208.404 149.337 208.404V208.404Z" fill="#3F3D56"/>
<path d="M465.235 175.388C473.978 175.388 481.066 168.305 481.066 159.567C481.066 150.83 473.978 143.747 465.235 143.747C456.492 143.747 449.405 150.83 449.405 159.567C449.405 168.305 456.492 175.388 465.235 175.388Z" fill="#3F3D56"/>
<path d="M500.338 211.844C509.081 211.844 516.168 204.761 516.168 196.023C516.168 187.286 509.081 180.203 500.338 180.203C491.595 180.203 484.507 187.286 484.507 196.023C484.507 204.761 491.595 211.844 500.338 211.844Z" fill="#3F3D56"/>
<path d="M465.235 246.236C473.978 246.236 481.066 239.153 481.066 230.416C481.066 221.678 473.978 214.595 465.235 214.595C456.492 214.595 449.405 221.678 449.405 230.416C449.405 239.153 456.492 246.236 465.235 246.236Z" fill="#3F3D56"/>
<path d="M430.133 211.156C438.876 211.156 445.963 204.073 445.963 195.335C445.963 186.598 438.876 179.515 430.133 179.515C421.39 179.515 414.302 186.598 414.302 195.335C414.302 204.073 421.39 211.156 430.133 211.156Z" fill="#3F3D56"/>
<path d="M500.338 206.341C498.296 206.341 496.3 205.736 494.602 204.602C492.904 203.468 491.581 201.857 490.799 199.972C490.018 198.086 489.813 196.012 490.212 194.01C490.61 192.009 491.593 190.171 493.037 188.728C494.481 187.285 496.321 186.302 498.324 185.904C500.326 185.506 502.402 185.71 504.289 186.491C506.175 187.272 507.788 188.594 508.922 190.291C510.056 191.988 510.662 193.983 510.662 196.023C510.659 198.759 509.57 201.381 507.635 203.316C505.699 205.25 503.075 206.338 500.338 206.341V206.341ZM500.338 187.081C498.568 187.081 496.838 187.606 495.367 188.588C493.895 189.571 492.748 190.967 492.071 192.601C491.394 194.235 491.217 196.033 491.562 197.768C491.907 199.502 492.759 201.096 494.011 202.346C495.262 203.597 496.856 204.448 498.592 204.793C500.328 205.138 502.127 204.961 503.762 204.285C505.397 203.608 506.794 202.462 507.777 200.991C508.761 199.521 509.285 197.792 509.285 196.023C509.283 193.652 508.339 191.38 506.662 189.703C504.984 188.027 502.71 187.084 500.338 187.081V187.081Z" fill="#E6E6E6"/>
<path d="M476.298 167.244L455.55 166.95L466.178 149.14L476.298 167.244ZM457.953 165.608L473.933 165.834L466.139 151.891L457.953 165.608Z" fill="#E6E6E6"/>
<path d="M438.392 203.59H421.874V187.081H438.392V203.59ZM423.25 202.214H437.016V188.457H423.25V202.214Z" fill="#E6E6E6"/>
<path d="M473.778 237.518L466.21 229.97L472.884 223.313L471.91 222.339L465.235 228.997L458.56 222.339L457.587 223.313L464.261 229.97L456.693 237.518L457.666 238.492L465.235 230.942L472.805 238.492L473.778 237.518Z" fill="#E6E6E6"/>
</svg>
